<mxfile host="app.diagrams.net" modified="2024-05-19T12:19:03.910Z" agent="Mozilla/5.0 (Macintosh; Intel Mac OS X 10_15_7) AppleWebKit/537.36 (KHTML, like Gecko) Chrome/123.0.0.0 Safari/537.36" etag="Q5efJQJBbbiF49tl6gFH" version="24.4.3" type="github">
  <diagram name="第 1 页" id="v7ffoWRVv22KWhD6IUQp">
    <mxGraphModel dx="1191" dy="785" grid="1" gridSize="10" guides="1" tooltips="1" connect="1" arrows="1" fold="1" page="1" pageScale="1" pageWidth="3300" pageHeight="4681" math="0" shadow="0">
      <root>
        <mxCell id="0" />
        <mxCell id="1" parent="0" />
        <mxCell id="-jfg4AWXQA8gevnk_Bxj-66" value="" style="rounded=1;whiteSpace=wrap;html=1;dashed=1;" vertex="1" parent="1">
          <mxGeometry x="40" y="215" width="510" height="580" as="geometry" />
        </mxCell>
        <mxCell id="-jfg4AWXQA8gevnk_Bxj-64" value="" style="rounded=1;whiteSpace=wrap;html=1;dashed=1;" vertex="1" parent="1">
          <mxGeometry x="320" y="280" width="190" height="420" as="geometry" />
        </mxCell>
        <mxCell id="-jfg4AWXQA8gevnk_Bxj-1" value="" style="ellipse;whiteSpace=wrap;html=1;aspect=fixed;" vertex="1" parent="1">
          <mxGeometry x="630" y="310" width="440" height="440" as="geometry" />
        </mxCell>
        <mxCell id="-jfg4AWXQA8gevnk_Bxj-2" value="CN1" style="ellipse;whiteSpace=wrap;html=1;aspect=fixed;fillColor=#dae8fc;strokeColor=#6c8ebf;" vertex="1" parent="1">
          <mxGeometry x="825" y="280" width="50" height="50" as="geometry" />
        </mxCell>
        <mxCell id="-jfg4AWXQA8gevnk_Bxj-5" value="CN2" style="ellipse;whiteSpace=wrap;html=1;aspect=fixed;fillColor=#dae8fc;strokeColor=#6c8ebf;" vertex="1" parent="1">
          <mxGeometry x="1020" y="620" width="50" height="50" as="geometry" />
        </mxCell>
        <mxCell id="-jfg4AWXQA8gevnk_Bxj-6" value="CN3" style="ellipse;whiteSpace=wrap;html=1;aspect=fixed;fillColor=#dae8fc;strokeColor=#6c8ebf;" vertex="1" parent="1">
          <mxGeometry x="640" y="630" width="50" height="50" as="geometry" />
        </mxCell>
        <mxCell id="-jfg4AWXQA8gevnk_Bxj-15" style="edgeStyle=orthogonalEdgeStyle;rounded=0;orthogonalLoop=1;jettySize=auto;html=1;curved=1;dashed=1;" edge="1" parent="1" source="-jfg4AWXQA8gevnk_Bxj-8" target="-jfg4AWXQA8gevnk_Bxj-2">
          <mxGeometry relative="1" as="geometry" />
        </mxCell>
        <mxCell id="-jfg4AWXQA8gevnk_Bxj-8" value="CN1" style="ellipse;whiteSpace=wrap;html=1;aspect=fixed;dashed=1;" vertex="1" parent="1">
          <mxGeometry x="750" y="710" width="50" height="50" as="geometry" />
        </mxCell>
        <mxCell id="-jfg4AWXQA8gevnk_Bxj-9" value="CN1" style="ellipse;whiteSpace=wrap;html=1;aspect=fixed;dashed=1;" vertex="1" parent="1">
          <mxGeometry x="1050" y="480" width="50" height="50" as="geometry" />
        </mxCell>
        <mxCell id="-jfg4AWXQA8gevnk_Bxj-10" value="CN2" style="ellipse;whiteSpace=wrap;html=1;aspect=fixed;dashed=1;" vertex="1" parent="1">
          <mxGeometry x="980" y="340" width="50" height="50" as="geometry" />
        </mxCell>
        <mxCell id="-jfg4AWXQA8gevnk_Bxj-11" value="CN2" style="ellipse;whiteSpace=wrap;html=1;aspect=fixed;dashed=1;" vertex="1" parent="1">
          <mxGeometry x="690" y="330" width="50" height="50" as="geometry" />
        </mxCell>
        <mxCell id="-jfg4AWXQA8gevnk_Bxj-12" value="CN3" style="ellipse;whiteSpace=wrap;html=1;aspect=fixed;dashed=1;" vertex="1" parent="1">
          <mxGeometry x="930" y="700" width="50" height="50" as="geometry" />
        </mxCell>
        <mxCell id="-jfg4AWXQA8gevnk_Bxj-13" value="CN3" style="ellipse;whiteSpace=wrap;html=1;aspect=fixed;dashed=1;" vertex="1" parent="1">
          <mxGeometry x="600" y="480" width="50" height="50" as="geometry" />
        </mxCell>
        <mxCell id="-jfg4AWXQA8gevnk_Bxj-14" value="" style="endArrow=classic;html=1;rounded=0;edgeStyle=orthogonalEdgeStyle;curved=1;dashed=1;" edge="1" parent="1" source="-jfg4AWXQA8gevnk_Bxj-9" target="-jfg4AWXQA8gevnk_Bxj-2">
          <mxGeometry width="50" height="50" relative="1" as="geometry">
            <mxPoint x="810" y="550" as="sourcePoint" />
            <mxPoint x="860" y="500" as="targetPoint" />
          </mxGeometry>
        </mxCell>
        <mxCell id="-jfg4AWXQA8gevnk_Bxj-16" value="&lt;span style=&quot;color: rgb(77, 77, 77); font-family: -apple-system, &amp;quot;SF UI Text&amp;quot;, Arial, &amp;quot;PingFang SC&amp;quot;, &amp;quot;Hiragino Sans GB&amp;quot;, &amp;quot;Microsoft YaHei&amp;quot;, &amp;quot;WenQuanYi Micro Hei&amp;quot;, sans-serif, SimHei, SimSun; font-size: 16px; text-align: start; background-color: rgb(255, 255, 255);&quot;&gt;0 / 2^32&lt;/span&gt;" style="text;html=1;align=center;verticalAlign=middle;whiteSpace=wrap;rounded=0;" vertex="1" parent="1">
          <mxGeometry x="570" y="390" width="60" height="30" as="geometry" />
        </mxCell>
        <mxCell id="-jfg4AWXQA8gevnk_Bxj-19" style="edgeStyle=orthogonalEdgeStyle;rounded=0;orthogonalLoop=1;jettySize=auto;html=1;dashed=1;" edge="1" parent="1" source="-jfg4AWXQA8gevnk_Bxj-18" target="-jfg4AWXQA8gevnk_Bxj-2">
          <mxGeometry relative="1" as="geometry" />
        </mxCell>
        <mxCell id="-jfg4AWXQA8gevnk_Bxj-20" value="hash( IP+PID+Seq1 )" style="edgeLabel;html=1;align=center;verticalAlign=middle;resizable=0;points=[];" vertex="1" connectable="0" parent="-jfg4AWXQA8gevnk_Bxj-19">
          <mxGeometry x="-0.3091" y="1" relative="1" as="geometry">
            <mxPoint as="offset" />
          </mxGeometry>
        </mxCell>
        <mxCell id="-jfg4AWXQA8gevnk_Bxj-21" style="edgeStyle=orthogonalEdgeStyle;rounded=0;orthogonalLoop=1;jettySize=auto;html=1;dashed=1;" edge="1" parent="1" source="-jfg4AWXQA8gevnk_Bxj-18" target="-jfg4AWXQA8gevnk_Bxj-9">
          <mxGeometry relative="1" as="geometry">
            <Array as="points">
              <mxPoint x="1170" y="505" />
            </Array>
          </mxGeometry>
        </mxCell>
        <mxCell id="-jfg4AWXQA8gevnk_Bxj-22" value="hash( IP+PID+Seq2 )" style="edgeLabel;html=1;align=center;verticalAlign=middle;resizable=0;points=[];" vertex="1" connectable="0" parent="-jfg4AWXQA8gevnk_Bxj-21">
          <mxGeometry x="-0.4286" relative="1" as="geometry">
            <mxPoint as="offset" />
          </mxGeometry>
        </mxCell>
        <mxCell id="-jfg4AWXQA8gevnk_Bxj-18" value="CN" style="rounded=0;whiteSpace=wrap;html=1;fillColor=#dae8fc;strokeColor=#6c8ebf;" vertex="1" parent="1">
          <mxGeometry x="1100" y="270" width="120" height="60" as="geometry" />
        </mxCell>
        <mxCell id="-jfg4AWXQA8gevnk_Bxj-23" value="" style="endArrow=classic;html=1;rounded=0;entryX=0.052;entryY=0.268;entryDx=0;entryDy=0;entryPerimeter=0;" edge="1" parent="1" source="-jfg4AWXQA8gevnk_Bxj-16" target="-jfg4AWXQA8gevnk_Bxj-1">
          <mxGeometry width="50" height="50" relative="1" as="geometry">
            <mxPoint x="450" y="480" as="sourcePoint" />
            <mxPoint x="650" y="430" as="targetPoint" />
          </mxGeometry>
        </mxCell>
        <mxCell id="-jfg4AWXQA8gevnk_Bxj-32" value="data file" style="shape=table;startSize=30;container=1;collapsible=0;childLayout=tableLayout;fixedRows=1;rowLines=0;fontStyle=0;strokeColor=default;fontSize=16;" vertex="1" parent="1">
          <mxGeometry x="70" y="425" width="180" height="120" as="geometry" />
        </mxCell>
        <mxCell id="-jfg4AWXQA8gevnk_Bxj-33" value="" style="shape=tableRow;horizontal=0;startSize=0;swimlaneHead=0;swimlaneBody=0;top=0;left=0;bottom=0;right=0;collapsible=0;dropTarget=0;fillColor=none;points=[[0,0.5],[1,0.5]];portConstraint=eastwest;strokeColor=inherit;fontSize=16;" vertex="1" parent="-jfg4AWXQA8gevnk_Bxj-32">
          <mxGeometry y="30" width="180" height="30" as="geometry" />
        </mxCell>
        <mxCell id="-jfg4AWXQA8gevnk_Bxj-34" value="1" style="shape=partialRectangle;html=1;whiteSpace=wrap;connectable=0;fillColor=none;top=0;left=0;bottom=0;right=0;overflow=hidden;pointerEvents=1;strokeColor=inherit;fontSize=16;" vertex="1" parent="-jfg4AWXQA8gevnk_Bxj-33">
          <mxGeometry width="40" height="30" as="geometry">
            <mxRectangle width="40" height="30" as="alternateBounds" />
          </mxGeometry>
        </mxCell>
        <mxCell id="-jfg4AWXQA8gevnk_Bxj-35" value="Row 1" style="shape=partialRectangle;html=1;whiteSpace=wrap;connectable=0;fillColor=none;top=0;left=0;bottom=0;right=0;align=left;spacingLeft=6;overflow=hidden;strokeColor=inherit;fontSize=16;" vertex="1" parent="-jfg4AWXQA8gevnk_Bxj-33">
          <mxGeometry x="40" width="140" height="30" as="geometry">
            <mxRectangle width="140" height="30" as="alternateBounds" />
          </mxGeometry>
        </mxCell>
        <mxCell id="-jfg4AWXQA8gevnk_Bxj-36" value="" style="shape=tableRow;horizontal=0;startSize=0;swimlaneHead=0;swimlaneBody=0;top=0;left=0;bottom=0;right=0;collapsible=0;dropTarget=0;fillColor=none;points=[[0,0.5],[1,0.5]];portConstraint=eastwest;strokeColor=inherit;fontSize=16;" vertex="1" parent="-jfg4AWXQA8gevnk_Bxj-32">
          <mxGeometry y="60" width="180" height="30" as="geometry" />
        </mxCell>
        <mxCell id="-jfg4AWXQA8gevnk_Bxj-37" value="2" style="shape=partialRectangle;html=1;whiteSpace=wrap;connectable=0;fillColor=none;top=0;left=0;bottom=0;right=0;overflow=hidden;strokeColor=inherit;fontSize=16;" vertex="1" parent="-jfg4AWXQA8gevnk_Bxj-36">
          <mxGeometry width="40" height="30" as="geometry">
            <mxRectangle width="40" height="30" as="alternateBounds" />
          </mxGeometry>
        </mxCell>
        <mxCell id="-jfg4AWXQA8gevnk_Bxj-38" value="Row 2" style="shape=partialRectangle;html=1;whiteSpace=wrap;connectable=0;fillColor=none;top=0;left=0;bottom=0;right=0;align=left;spacingLeft=6;overflow=hidden;strokeColor=inherit;fontSize=16;" vertex="1" parent="-jfg4AWXQA8gevnk_Bxj-36">
          <mxGeometry x="40" width="140" height="30" as="geometry">
            <mxRectangle width="140" height="30" as="alternateBounds" />
          </mxGeometry>
        </mxCell>
        <mxCell id="-jfg4AWXQA8gevnk_Bxj-39" value="" style="shape=tableRow;horizontal=0;startSize=0;swimlaneHead=0;swimlaneBody=0;top=0;left=0;bottom=0;right=0;collapsible=0;dropTarget=0;fillColor=none;points=[[0,0.5],[1,0.5]];portConstraint=eastwest;strokeColor=inherit;fontSize=16;" vertex="1" parent="-jfg4AWXQA8gevnk_Bxj-32">
          <mxGeometry y="90" width="180" height="30" as="geometry" />
        </mxCell>
        <mxCell id="-jfg4AWXQA8gevnk_Bxj-40" value="3" style="shape=partialRectangle;html=1;whiteSpace=wrap;connectable=0;fillColor=none;top=0;left=0;bottom=0;right=0;overflow=hidden;strokeColor=inherit;fontSize=16;" vertex="1" parent="-jfg4AWXQA8gevnk_Bxj-39">
          <mxGeometry width="40" height="30" as="geometry">
            <mxRectangle width="40" height="30" as="alternateBounds" />
          </mxGeometry>
        </mxCell>
        <mxCell id="-jfg4AWXQA8gevnk_Bxj-41" value="Row ..." style="shape=partialRectangle;html=1;whiteSpace=wrap;connectable=0;fillColor=none;top=0;left=0;bottom=0;right=0;align=left;spacingLeft=6;overflow=hidden;strokeColor=inherit;fontSize=16;" vertex="1" parent="-jfg4AWXQA8gevnk_Bxj-39">
          <mxGeometry x="40" width="140" height="30" as="geometry">
            <mxRectangle width="140" height="30" as="alternateBounds" />
          </mxGeometry>
        </mxCell>
        <mxCell id="-jfg4AWXQA8gevnk_Bxj-48" value="" style="shape=cylinder3;whiteSpace=wrap;html=1;boundedLbl=1;backgroundOutline=1;size=15;rotation=90;" vertex="1" parent="1">
          <mxGeometry x="400" y="300" width="30" height="170" as="geometry" />
        </mxCell>
        <mxCell id="-jfg4AWXQA8gevnk_Bxj-49" value="" style="shape=cylinder3;whiteSpace=wrap;html=1;boundedLbl=1;backgroundOutline=1;size=15;rotation=90;" vertex="1" parent="1">
          <mxGeometry x="400" y="420" width="30" height="170" as="geometry" />
        </mxCell>
        <mxCell id="-jfg4AWXQA8gevnk_Bxj-50" value="" style="shape=cylinder3;whiteSpace=wrap;html=1;boundedLbl=1;backgroundOutline=1;size=15;rotation=90;" vertex="1" parent="1">
          <mxGeometry x="400" y="540" width="30" height="170" as="geometry" />
        </mxCell>
        <mxCell id="-jfg4AWXQA8gevnk_Bxj-51" value="tablet1xxx" style="text;html=1;align=center;verticalAlign=middle;whiteSpace=wrap;rounded=0;" vertex="1" parent="1">
          <mxGeometry x="380" y="370" width="60" height="30" as="geometry" />
        </mxCell>
        <mxCell id="-jfg4AWXQA8gevnk_Bxj-52" value="tablet2xxx" style="text;html=1;align=center;verticalAlign=middle;whiteSpace=wrap;rounded=0;" vertex="1" parent="1">
          <mxGeometry x="380" y="610" width="60" height="30" as="geometry" />
        </mxCell>
        <mxCell id="-jfg4AWXQA8gevnk_Bxj-53" value="tablet&lt;span style=&quot;background-color: initial;&quot;&gt;..&lt;/span&gt;" style="text;html=1;align=center;verticalAlign=middle;whiteSpace=wrap;rounded=0;" vertex="1" parent="1">
          <mxGeometry x="380" y="490" width="60" height="30" as="geometry" />
        </mxCell>
        <mxCell id="-jfg4AWXQA8gevnk_Bxj-55" style="edgeStyle=orthogonalEdgeStyle;rounded=0;orthogonalLoop=1;jettySize=auto;html=1;entryX=0.311;entryY=0.032;entryDx=0;entryDy=0;entryPerimeter=0;curved=1;" edge="1" parent="1" source="-jfg4AWXQA8gevnk_Bxj-48" target="-jfg4AWXQA8gevnk_Bxj-1">
          <mxGeometry relative="1" as="geometry" />
        </mxCell>
        <mxCell id="-jfg4AWXQA8gevnk_Bxj-62" value="hash(table_id)" style="edgeLabel;html=1;align=center;verticalAlign=middle;resizable=0;points=[];" vertex="1" connectable="0" parent="-jfg4AWXQA8gevnk_Bxj-55">
          <mxGeometry x="-0.0364" y="-12" relative="1" as="geometry">
            <mxPoint as="offset" />
          </mxGeometry>
        </mxCell>
        <mxCell id="-jfg4AWXQA8gevnk_Bxj-56" value="shuffle" style="edgeStyle=orthogonalEdgeStyle;rounded=0;orthogonalLoop=1;jettySize=auto;html=1;entryX=0.5;entryY=1;entryDx=0;entryDy=0;entryPerimeter=0;curved=1;" edge="1" parent="1" source="-jfg4AWXQA8gevnk_Bxj-33" target="-jfg4AWXQA8gevnk_Bxj-48">
          <mxGeometry relative="1" as="geometry" />
        </mxCell>
        <mxCell id="-jfg4AWXQA8gevnk_Bxj-57" style="edgeStyle=orthogonalEdgeStyle;rounded=0;orthogonalLoop=1;jettySize=auto;html=1;entryX=0.5;entryY=1;entryDx=0;entryDy=0;entryPerimeter=0;curved=1;" edge="1" parent="1" source="-jfg4AWXQA8gevnk_Bxj-36" target="-jfg4AWXQA8gevnk_Bxj-50">
          <mxGeometry relative="1" as="geometry" />
        </mxCell>
        <mxCell id="-jfg4AWXQA8gevnk_Bxj-63" value="shuffle" style="edgeLabel;html=1;align=center;verticalAlign=middle;resizable=0;points=[];" vertex="1" connectable="0" parent="-jfg4AWXQA8gevnk_Bxj-57">
          <mxGeometry x="0.2" y="2" relative="1" as="geometry">
            <mxPoint as="offset" />
          </mxGeometry>
        </mxCell>
        <mxCell id="-jfg4AWXQA8gevnk_Bxj-61" value="hash(table_id)" style="edgeStyle=orthogonalEdgeStyle;rounded=0;orthogonalLoop=1;jettySize=auto;html=1;entryX=0.584;entryY=1.005;entryDx=0;entryDy=0;entryPerimeter=0;curved=1;" edge="1" parent="1" source="-jfg4AWXQA8gevnk_Bxj-50" target="-jfg4AWXQA8gevnk_Bxj-1">
          <mxGeometry relative="1" as="geometry">
            <Array as="points">
              <mxPoint x="565" y="625" />
              <mxPoint x="565" y="790" />
              <mxPoint x="887" y="790" />
            </Array>
          </mxGeometry>
        </mxCell>
        <mxCell id="-jfg4AWXQA8gevnk_Bxj-65" value="channels" style="text;html=1;align=center;verticalAlign=middle;whiteSpace=wrap;rounded=0;" vertex="1" parent="1">
          <mxGeometry x="380" y="290" width="60" height="30" as="geometry" />
        </mxCell>
        <mxCell id="-jfg4AWXQA8gevnk_Bxj-67" value="CN" style="text;html=1;align=center;verticalAlign=middle;whiteSpace=wrap;rounded=0;" vertex="1" parent="1">
          <mxGeometry x="70" y="240" width="60" height="30" as="geometry" />
        </mxCell>
      </root>
    </mxGraphModel>
  </diagram>
</mxfile>
